<svg xmlns="http://www.w3.org/2000/svg" xmlns:xlink="http://www.w3.org/1999/xlink" width="500" zoomAndPan="magnify" viewBox="0 0 375 374.999991" height="500" preserveAspectRatio="xMidYMid meet" version="1.0"><defs><clipPath id="537775a5b3"><path d="M 3.492188 3.492188 L 371.742188 3.492188 L 371.742188 371.742188 L 3.492188 371.742188 Z M 3.492188 3.492188 " clip-rule="nonzero"/></clipPath></defs><path fill="#2e9b70" d="M 60.976562 247.78125 C 50.449219 226.582031 45.519531 204.132812 45.519531 182.9375 C 45.519531 160.339844 50.820312 139.289062 60.976562 121.257812 L 63.40625 117.0625 L 68.703125 117.796875 C 89.167969 120.59375 109.1875 129.5 126.851562 142.824219 C 143.78125 155.925781 158.207031 173.515625 168.730469 195.007812 C 176.089844 210.097656 180.65625 225.996094 182.789062 241.894531 C 184.925781 258.160156 184.1875 273.984375 180.65625 289.144531 L 178.886719 297.609375 L 170.792969 294.445312 C 148.933594 286.347656 96.746094 242.628906 99.542969 181.683594 C 99.542969 182.054688 118.238281 251.535156 167.921875 276.855469 C 169.320312 266.328125 169.320312 254.992188 167.921875 243.734375 C 166.15625 229.675781 161.960938 215.175781 155.261719 201.484375 C 145.765625 182.421875 132.664062 166.597656 117.578125 155.039062 C 103.519531 144.148438 87.621094 136.714844 71.355469 133.550781 C 64.066406 148.269531 60.167969 165.125 60.167969 183.082031 C 60.167969 202.148438 64.730469 222.167969 74.226562 241.230469 C 124.273438 344.199219 258.160156 328.671875 300.847656 241.230469 C 310.34375 222.167969 314.90625 202.148438 314.90625 183.082031 C 314.90625 165.050781 311.007812 148.195312 303.644531 133.402344 C 287.378906 136.566406 271.554688 143.925781 257.421875 154.894531 C 242.335938 166.597656 229.234375 182.421875 219.738281 201.335938 C 213.039062 215.027344 208.84375 229.527344 207.078125 243.585938 C 205.679688 254.847656 205.679688 266.183594 207.078125 276.707031 C 256.761719 251.3125 275.457031 181.90625 275.457031 181.539062 C 277.882812 242.480469 226.066406 286.273438 204.207031 294.296875 L 196.113281 297.464844 L 194.34375 289 C 190.8125 273.910156 190.148438 258.011719 192.210938 241.746094 C 193.976562 225.847656 198.910156 210.023438 206.269531 194.859375 C 216.792969 173.367188 231.292969 155.777344 248.148438 142.675781 C 265.8125 129.207031 285.832031 120.449219 306.296875 117.652344 L 311.226562 116.914062 L 314.023438 121.109375 C 324.253906 139.144531 329.480469 160.191406 329.480469 182.789062 C 329.480469 203.988281 324.550781 226.4375 314.023438 247.632812 C 266.402344 346.113281 116.621094 362.011719 60.976562 247.78125 Z M 60.976562 247.78125 " fill-opacity="1" fill-rule="nonzero"/><path fill="#2e9b70" d="M 187.425781 128.25 C 198.6875 128.25 207.519531 137.007812 207.519531 147.976562 C 207.519531 158.941406 198.761719 168.070312 187.425781 168.070312 C 176.53125 168.070312 167.699219 158.941406 167.699219 147.976562 C 167.773438 137.082031 176.53125 128.25 187.425781 128.25 Z M 187.425781 128.25 " fill-opacity="1" fill-rule="nonzero"/><g clip-path="url(#537775a5b3)"><path fill="#2e9b70" d="M 187.425781 3.492188 C 238.582031 3.492188 284.433594 24.320312 317.925781 57.441406 C 351.046875 90.933594 371.507812 136.789062 371.507812 187.574219 C 371.507812 238.726562 351.046875 284.582031 317.925781 317.925781 C 284.433594 351.046875 238.582031 371.507812 187.574219 371.507812 C 136.789062 371.507812 91.007812 351.046875 57.441406 317.925781 C 24.320312 284.433594 3.492188 238.582031 3.492188 187.425781 C 3.492188 136.640625 24.320312 90.933594 57.441406 57.441406 C 90.933594 24.320312 136.714844 3.492188 187.425781 3.492188 Z M 307.324219 67.96875 C 276.558594 37.644531 234.3125 18.582031 187.425781 18.582031 C 140.984375 18.582031 98.585938 37.644531 67.96875 67.96875 C 37.644531 98.660156 18.582031 140.984375 18.582031 187.425781 C 18.582031 234.3125 37.644531 276.558594 67.96875 306.882812 C 98.660156 337.578125 140.984375 356.566406 187.425781 356.566406 C 234.3125 356.566406 276.558594 337.503906 307.253906 306.882812 C 337.578125 276.558594 356.640625 234.238281 356.640625 187.425781 C 356.640625 140.984375 337.648438 98.660156 307.324219 67.96875 Z M 307.324219 67.96875 " fill-opacity="1" fill-rule="nonzero"/></g><path fill="#2e9b70" d="M 187.425781 44.710938 C 226.878906 44.710938 262.871094 60.609375 288.628906 86.371094 C 294.59375 92.332031 300.332031 99.027344 304.898438 105.800781 C 299.597656 106.535156 294.371094 107.933594 289 109.332031 C 285.464844 105.136719 281.933594 100.867188 278.105469 97.042969 C 255.214844 74.152344 223.125 59.652344 187.425781 59.652344 C 152.171875 59.652344 120.152344 74.152344 97.1875 96.96875 C 93.289062 100.867188 89.828125 105.066406 86.296875 109.261719 C 80.996094 107.863281 75.769531 106.464844 70.398438 105.726562 C 74.960938 99.027344 80.628906 92.257812 86.296875 86.296875 C 112.425781 60.609375 147.976562 44.710938 187.425781 44.710938 Z M 187.425781 44.710938 " fill-opacity="1" fill-rule="nonzero"/></svg>